<svg width="213" height="212" xmlns="http://www.w3.org/2000/svg">

 <g>
  <title>background</title>
  <rect fill="none" id="canvas_background" height="602" width="802" y="-1" x="-1"/>
 </g>
 <g>
  <title>Layer 1</title>
  <g id="svg_3">
   <path id="svg_4" d="m186.5,57.5c0.131,0.8764 -0.202,1.5431 -1,2c-7.736,3.8595 -15.069,8.1929 -22,13c-19.076,-11.7368 -38.41,-23.0702 -58,-34c-19.0629,11.5298 -38.3962,22.5298 -58,33c-7.6986,-3.8442 -15.0319,-8.1775 -22,-13c26.6844,-15.8354 53.5177,-31.5021 80.5,-47c26.612,15.7225 53.445,31.0558 80.5,46z" fill="#f9ce1a"/>
  </g>
  <g id="svg_5">
   <path id="svg_6" d="m163.5,72.5c0.333,22.3433 0,44.677 -1,67c-18.887,11.274 -37.887,22.274 -57,33c-3.27,-1.974 -6.6032,-3.974 -10,-6c-1.3333,-9 -1.3333,-18 0,-27c3.0766,2.205 6.41,3.872 10,5c11.635,-5.324 23.135,-11.657 34.5,-19c0.827,-13.506 0.66,-26.8397 -0.5,-40c-11.044,-7.278 -22.544,-13.9447 -34.5,-20c-11.1311,6.8119 -22.2978,13.4786 -33.5,20c-0.6667,22 -1.3333,44 -2,66c-6.9608,-3.936 -13.9608,-7.936 -21,-12c-0.9997,-22.657 -1.333,-45.3235 -1,-68c19.6038,-10.4702 38.9371,-21.4702 58,-33c19.59,10.9298 38.924,22.2632 58,34z" fill="#fdfcfa"/>
  </g>
  <g id="svg_7">
   <path id="svg_8" d="m25.5,58.5c6.9681,4.8225 14.3014,9.1558 22,13c-0.333,22.6765 0.0003,45.343 1,68c7.0392,4.064 14.0392,8.064 21,12c0.06,0.543 0.3933,0.876 1,1c0.9997,-22.323 1.333,-44.657 1,-67c11.3609,6.6782 22.6942,13.3449 34,20c0,13 0,26 0,39c-3.59,-1.128 -6.9234,-2.795 -10,-5c-1.3333,9 -1.3333,18 0,27c3.3968,2.026 6.73,4.026 10,6c0,8.667 0,17.333 0,26c-27.0228,-14.93 -53.8561,-30.264 -80.5,-46c-0.8307,-31.503 -0.664,-62.836 0.5,-94z" fill="#b57c15"/>
  </g>
  <g id="svg_9">
   <path id="svg_10" d="m186.5,57.5c1.33,31.5026 1.33,63.169 0,95c-26.611,16.135 -53.611,31.469 -81,46c0,-8.667 0,-17.333 0,-26c19.113,-10.726 38.113,-21.726 57,-33c1,-22.323 1.333,-44.6567 1,-67c6.931,-4.8071 14.264,-9.1405 22,-13c0.798,-0.4569 1.131,-1.1236 1,-2z" fill="#f3a525"/>
  </g>
  <g id="svg_11">
   <path id="svg_12" d="m139.5,85.5c-11.297,6.6513 -22.63,13.318 -34,20c-11.3058,-6.6551 -22.6391,-13.3218 -34,-20c11.2022,-6.5214 22.3689,-13.1881 33.5,-20c11.956,6.0553 23.456,12.722 34.5,20z" fill="#f9cd19"/>
  </g>
  <g id="svg_15">
   <path id="svg_16" d="m139.5,85.5c1.16,13.1603 1.327,26.494 0.5,40c-11.365,7.343 -22.865,13.676 -34.5,19c0,-13 0,-26 0,-39c11.37,-6.682 22.703,-13.3487 34,-20z" fill="#f2a421"/>
  </g>
 </g>
</svg>